<svg width="1920" height="1080" viewBox="0 0 1920 1080" xmlns="http://www.w3.org/2000/svg"><rect width="1920" height="1080" fill="#95edd1"/><path d="M 0,1080 C 0,1080 0,360 0,360 C 148.53571428571428,421.9642857142857 297.07142857142856,483.92857142857144 453,470 C 608.9285714285714,456.07142857142856 772.2499999999998,366.25 931,371 C 1089.7500000000002,375.75 1243.9285714285716,475.0714285714286 1408,489 C 1572.0714285714284,502.9285714285714 1746.0357142857142,431.46428571428567 1920,360 C 1920,360 1920,1080 1920,1080 Z" fill="#5ed787" opacity="0.19999999999999998"/><path d="M 0,1080 C 0,1080 0,720 0,720 C 192,779.0357142857142 384,838.0714285714286 538,810 C 692,781.9285714285714 808,666.75 957,625 C 1106,583.25 1288,614.9285714285716 1454,643 C 1620,671.0714285714284 1770,695.5357142857142 1920,720 C 1920,720 1920,1080 1920,1080 Z" fill="#5ed787" opacity="0.39999999999999997"/></svg>