<svg width="1920" height="1080" viewBox="0 0 1920 1080" xmlns="http://www.w3.org/2000/svg"><rect width="1920" height="1080" fill="#c0eaf5"/><path d="M 0,1080 C 0,1080 0,360 0,360 C 136.67857142857144,299.6428571428571 273.3571428571429,239.28571428571428 412,273 C 550.6428571428571,306.7142857142857 691.25,434.49999999999994 888,452 C 1084.75,469.50000000000006 1337.642857142857,376.7142857142857 1519,343 C 1700.357142857143,309.2857142857143 1810.1785714285716,334.6428571428571 1920,360 C 1920,360 1920,1080 1920,1080 Z" fill="#55b9e5" opacity="0.19999999999999998"/><path d="M 0,1080 C 0,1080 0,720 0,720 C 139.82142857142856,679.2142857142858 279.6428571428571,638.4285714285714 449,637 C 618.3571428571429,635.5714285714286 817.25,673.5 968,665 C 1118.75,656.5 1221.357142857143,601.5714285714286 1372,603 C 1522.642857142857,604.4285714285714 1721.3214285714284,662.2142857142858 1920,720 C 1920,720 1920,1080 1920,1080 Z" fill="#55b9e5" opacity="0.39999999999999997"/></svg>