<svg width="33" height="33" viewBox="0 0 33 33" fill="none" xmlns="http://www.w3.org/2000/svg">
<path d="M10.4885 15.9789C8.32975 15.9789 6.875 17.4804 6.875 19.7051C6.875 21.7071 8.547 23.375 10.8116 23.375C13.2921 23.375 15.125 21.373 15.125 18.315C15.125 11.3644 10.0567 8.58413 6.875 8.25V11.308C9.03238 11.6971 11.4579 13.8655 11.5665 16.258C11.4579 16.203 11.0275 15.9789 10.4885 15.9789ZM21.4871 15.9789C19.3311 15.9789 17.875 17.4804 17.875 19.7051C17.875 21.7071 19.547 23.375 21.8116 23.375C24.2921 23.375 26.125 21.373 26.125 18.315C26.125 11.3644 21.0567 8.58413 17.875 8.25V11.308C20.0324 11.6971 22.4579 13.8655 22.5665 16.258C22.4579 16.203 22.0275 15.9789 21.4871 15.9789Z" fill="#6500CA"/>
</svg>
