<svg width="33" height="33" viewBox="0 0 33 33" fill="none" xmlns="http://www.w3.org/2000/svg">
<path d="M22.5115 15.9789C24.6702 15.9789 26.125 17.4804 26.125 19.7051C26.125 21.7071 24.453 23.375 22.1884 23.375C19.7079 23.375 17.875 21.373 17.875 18.315C17.875 11.3644 22.9433 8.58413 26.125 8.25V11.308C23.9676 11.6971 21.5421 13.8655 21.4335 16.258C21.5421 16.203 21.9725 15.9789 22.5115 15.9789ZM11.5129 15.9789C13.6689 15.9789 15.125 17.4804 15.125 19.7051C15.125 21.7071 13.453 23.375 11.1884 23.375C8.70788 23.375 6.875 21.373 6.875 18.315C6.875 11.3644 11.9433 8.58413 15.125 8.25V11.308C12.9676 11.6971 10.5421 13.8655 10.4335 16.258C10.5421 16.203 10.9725 15.9789 11.5129 15.9789Z" fill="#6500CA"/>
</svg>
