<svg width="23" height="23" viewBox="0 0 23 23" fill="none" xmlns="http://www.w3.org/2000/svg">
<g clip-path="url(#clip0_326_2)">
<path d="M10.952 15.2645C10.4623 15.7541 9.6627 15.7541 9.17305 15.2645L6.29805 12.3895C5.8084 11.8998 5.8084 11.1002 6.29805 10.6105C6.7877 10.1209 7.5873 10.1209 8.07695 10.6105L10.0625 12.5961L14.923 7.73555C15.4127 7.2459 16.2123 7.2459 16.702 7.73555C17.1916 8.2252 17.1916 9.0248 16.702 9.51445L10.952 15.2645ZM23 11.5C23 17.852 17.852 23 11.5 23C5.14805 23 0 17.852 0 11.5C0 5.14805 5.14805 0 11.5 0C17.852 0 23 5.14805 23 11.5ZM11.5 2.15625C6.33848 2.15625 2.15625 6.33848 2.15625 11.5C2.15625 16.6615 6.33848 20.8438 11.5 20.8438C16.6615 20.8438 20.8438 16.6615 20.8438 11.5C20.8438 6.33848 16.6615 2.15625 11.5 2.15625Z" fill="#17B3BD"/>
</g>
<defs>
<clipPath id="clip0_326_2">
<rect width="23" height="23" fill="white"/>
</clipPath>
</defs>
</svg>
