<svg width="271" height="64" viewBox="0 0 271 64" fill="none" xmlns="http://www.w3.org/2000/svg">
<path d="M66.9362 47.5901L56.3815 51.8623L43.628 57.0139H43.5652C43.5023 57.0139 43.5024 57.0139 43.4395 57.0767C43.3139 57.1396 43.2511 57.1396 43.1254 57.2024C43.0626 57.2024 42.9997 57.2024 42.9369 57.2652C42.8741 57.2652 42.7484 57.3281 42.6856 57.3281C42.6228 57.3281 42.56 57.328 42.4972 57.3909C42.4343 57.3909 42.3087 57.3909 42.2459 57.4537C42.183 57.4537 42.1202 57.4537 41.9945 57.4537C41.9317 57.4537 41.8689 57.4537 41.7432 57.4537C41.6176 57.4537 41.4919 57.4537 41.3663 57.4537H41.3035C41.1778 57.4537 41.0522 57.4537 40.9893 57.3909C40.9265 57.3909 40.9265 57.3909 40.8637 57.3909C40.8637 57.3909 40.8637 57.3909 40.8009 57.3909C40.738 57.3909 40.6124 57.3281 40.5496 57.3281C40.4867 57.3281 40.4867 57.3281 40.4239 57.2652C40.2983 57.2652 40.2354 57.2024 40.1098 57.1396C40.047 57.1396 40.047 57.1396 39.9841 57.0767L4.80198 42.8782C2.41462 41.9359 1.15811 39.2344 2.03767 36.847C2.98004 34.3968 5.74436 33.2031 8.13172 34.2083L39.4187 46.8362L39.9213 47.0247C41.0522 47.4645 42.3715 47.4645 43.5024 47.0247L71.7737 35.5905L77.6793 33.2031C78.3704 32.9518 78.3076 32.1351 77.7421 31.821L45.1358 17.1199C42.9997 16.1775 40.4867 16.1775 38.3507 17.1199L4.23655 32.5121C2.54027 33.1403 1.15811 34.3968 0.467034 36.1559C-0.852297 39.4228 0.718339 43.1924 3.98525 44.5117L39.1674 58.7102C39.6072 58.8987 40.047 59.0243 40.4867 59.0872H40.5496C40.6752 59.0872 40.8637 59.15 40.9893 59.15C41.0522 59.15 41.0522 59.15 41.115 59.15C41.3035 59.15 41.4919 59.15 41.6804 59.15C42.4971 59.15 43.3139 58.9615 44.0678 58.7102L76.2971 45.7054C77.8678 45.0771 78.1191 44.5117 78.1191 43.1295L66.9362 47.5901ZM4.8648 32.2608C4.8648 32.2608 4.80198 32.2608 4.8648 32.2608C4.80198 32.2608 4.8648 32.2608 4.8648 32.2608ZM5.93283 32.0723C5.87001 32.0723 5.87001 32.0723 5.80718 32.0723C5.87001 32.0723 5.93283 32.0723 5.93283 32.0723ZM5.43024 32.1351H5.36741C5.36741 32.1351 5.36741 32.1351 5.43024 32.1351Z" fill="#E3FFF9"/>
<path d="M41.8055 55.192C41.3029 55.192 40.8003 55.1292 40.2977 55.0035H40.2349L6.3092 41.2448C6.0579 41.1191 5.86942 40.805 5.99507 40.5537C6.12072 40.3024 6.43485 40.1139 6.68615 40.2396L40.6118 53.9355C41.3657 54.1868 42.1196 54.1868 42.9363 53.9355L75.6683 40.7422C75.9196 40.6165 76.2337 40.7422 76.3594 41.0563C76.485 41.3076 76.3594 41.6217 76.0453 41.7474L43.3133 54.9407H43.2505C42.8107 55.1292 42.3081 55.192 41.8055 55.192Z" fill="#026E64"/>
<path d="M41.8055 51.4225C41.3029 51.4225 40.8003 51.3596 40.2977 51.234H40.2349L6.3092 37.4753C6.0579 37.3496 5.86942 37.0355 5.99507 36.7842C6.12072 36.5329 6.43485 36.3444 6.68615 36.47L40.6118 50.166C41.3657 50.4173 42.1824 50.4173 42.9363 50.166L75.6683 36.9726C75.9196 36.847 76.2337 36.9726 76.3594 37.2868C76.485 37.5381 76.3594 37.8522 76.0453 37.9779L43.3133 51.1712H43.2505C42.8107 51.3596 42.3081 51.4225 41.8055 51.4225Z" fill="#026E64"/>
<path d="M39.3552 0.282714L15.356 11.2143C14.7277 11.4656 14.7277 12.3452 15.356 12.5965L39.3552 23.5281C40.1091 23.8422 40.9259 23.8422 41.6169 23.5281L65.6162 12.5965C66.2444 12.3452 66.2444 11.4656 65.6162 11.2143L41.6169 0.282714C40.9259 -0.0942379 40.1091 -0.0942379 39.3552 0.282714Z" fill="#E3FFF9"/>
<path d="M40.3606 36.5958C29.806 36.5958 21.8271 33.0147 21.8271 28.24V15.7378L38.7272 23.4653C39.2926 23.7166 39.858 23.8423 40.4863 23.8423C41.1145 23.8423 41.6799 23.7166 42.2454 23.4653L58.8941 15.8634V28.1772C58.8941 32.9519 50.9781 36.5958 40.3606 36.5958Z" fill="#026E64"/>
<path d="M42.8108 24.7217C42.0569 25.0359 41.303 25.2243 40.4863 25.2243C39.6695 25.2243 38.9156 25.0359 38.1617 24.7217L23.1465 17.8738V28.24C23.1465 32.1351 30.8112 35.2764 40.2978 35.2764C49.7844 35.2764 57.4491 32.1351 57.4491 28.24V17.9994L42.8108 24.7217Z" fill="#E3FFF9"/>
<path d="M125.834 44H114.521C114.43 44 114.384 43.943 114.384 43.8291L114.418 19.7837C114.418 19.6925 114.464 19.647 114.555 19.647H125.8C125.891 19.647 125.937 19.7039 125.937 19.8179V23.7314C125.937 23.8226 125.891 23.8682 125.8 23.8682H118.623V29.3369H125.8C125.891 29.3369 125.937 29.3825 125.937 29.4736L125.971 33.4385C125.971 33.5296 125.926 33.5752 125.834 33.5752H118.623V39.6934H125.834C125.926 39.6934 125.971 39.7503 125.971 39.8643V43.8633C125.971 43.9544 125.926 44 125.834 44ZM137.449 43.9658L131.177 44C131.064 44 131.007 43.943 131.007 43.8291L131.075 19.7837C131.075 19.6925 131.12 19.647 131.212 19.647L137.757 19.6128C139.056 19.5786 140.229 19.8748 141.278 20.5015C142.337 21.1281 143.18 21.9769 143.807 23.0479C144.445 24.1074 144.764 25.2809 144.764 26.5684V36.6172C144.764 37.9616 144.439 39.1921 143.79 40.3086C143.129 41.4137 142.252 42.2967 141.158 42.9575C140.064 43.6069 138.828 43.943 137.449 43.9658ZM137.757 23.7998L135.313 23.834L135.279 39.6934H137.449C138.315 39.6934 139.044 39.3914 139.637 38.7876C140.229 38.1838 140.526 37.4603 140.526 36.6172V26.5342C140.526 25.7936 140.252 25.1499 139.705 24.603C139.158 24.0448 138.509 23.777 137.757 23.7998ZM155.883 44.3418C154.653 44.3418 153.513 44.0228 152.465 43.3848C151.417 42.7467 150.58 41.8923 149.953 40.8213C149.338 39.7389 149.03 38.5597 149.03 37.2837L149.099 19.7837C149.099 19.6925 149.144 19.647 149.235 19.647H153.166C153.257 19.647 153.303 19.6925 153.303 19.7837V37.2837C153.303 38.0698 153.553 38.742 154.055 39.3003C154.556 39.8472 155.165 40.1206 155.883 40.1206C156.635 40.1206 157.262 39.8472 157.763 39.3003C158.264 38.742 158.515 38.0698 158.515 37.2837V19.7837C158.515 19.6925 158.561 19.647 158.652 19.647H162.582C162.674 19.647 162.719 19.6925 162.719 19.7837L162.787 37.2837C162.787 38.5711 162.48 39.756 161.865 40.8384C161.238 41.9093 160.406 42.7638 159.37 43.4019C158.333 44.0285 157.171 44.3418 155.883 44.3418Z" fill="black"/>
<path d="M173.907 44.3418C172.642 44.3418 171.486 44.0228 170.438 43.3848C169.401 42.7467 168.575 41.8923 167.96 40.8213C167.356 39.7389 167.054 38.5369 167.054 37.2153L167.088 26.2949C167.088 24.9961 167.384 23.8226 167.977 22.7744C168.569 21.7148 169.384 20.866 170.421 20.228C171.469 19.5786 172.631 19.2539 173.907 19.2539C175.206 19.2539 176.362 19.5672 177.376 20.1938C178.401 20.8205 179.216 21.6693 179.82 22.7402C180.435 23.7998 180.743 24.9847 180.743 26.2949V27.9014C180.743 27.9925 180.697 28.0381 180.606 28.0381H176.675C176.584 28.0381 176.539 27.9925 176.539 27.9014V26.2949C176.539 25.5202 176.288 24.8537 175.787 24.2954C175.285 23.7371 174.659 23.458 173.907 23.458C173.075 23.458 172.437 23.7428 171.993 24.3125C171.548 24.8822 171.326 25.543 171.326 26.2949V37.2153C171.326 38.0698 171.577 38.7705 172.078 39.3174C172.58 39.8529 173.189 40.1206 173.907 40.1206C174.659 40.1206 175.285 39.8244 175.787 39.2319C176.288 38.6281 176.539 37.9559 176.539 37.2153V35.5918C176.539 35.5007 176.584 35.4551 176.675 35.4551H180.64C180.731 35.4551 180.777 35.5007 180.777 35.5918V37.2153C180.777 38.5256 180.469 39.7218 179.854 40.8042C179.227 41.8752 178.401 42.7354 177.376 43.3848C176.351 44.0228 175.194 44.3418 173.907 44.3418ZM184.069 43.8291L188.41 19.7837C188.433 19.6925 188.49 19.647 188.581 19.647H193.657C193.748 19.647 193.805 19.6925 193.827 19.7837L197.997 43.8291C198.009 43.943 197.963 44 197.861 44H193.981C193.867 44 193.805 43.943 193.793 43.8291L193.417 41.2656H188.649L188.273 43.8291C188.262 43.943 188.205 44 188.102 44H184.206C184.115 44 184.069 43.943 184.069 43.8291ZM190.922 27.6963L189.35 37.5229H192.717L191.281 27.6963L191.076 26.3975L190.922 27.6963ZM208.553 43.9658L202.281 44C202.167 44 202.11 43.943 202.11 43.8291L202.178 19.7837C202.178 19.6925 202.224 19.647 202.315 19.647L208.86 19.6128C210.159 19.5786 211.333 19.8748 212.381 20.5015C213.44 21.1281 214.284 21.9769 214.91 23.0479C215.548 24.1074 215.867 25.2809 215.867 26.5684V36.6172C215.867 37.9616 215.542 39.1921 214.893 40.3086C214.232 41.4137 213.355 42.2967 212.261 42.9575C211.167 43.6069 209.931 43.943 208.553 43.9658ZM208.86 23.7998L206.417 23.834L206.382 39.6934H208.553C209.419 39.6934 210.148 39.3914 210.74 38.7876C211.333 38.1838 211.629 37.4603 211.629 36.6172V26.5342C211.629 25.7936 211.355 25.1499 210.809 24.603C210.262 24.0448 209.612 23.777 208.86 23.7998ZM231.994 44H220.68C220.589 44 220.544 43.943 220.544 43.8291L220.578 19.7837C220.578 19.6925 220.623 19.647 220.715 19.647H231.96C232.051 19.647 232.096 19.7039 232.096 19.8179V23.7314C232.096 23.8226 232.051 23.8682 231.96 23.8682H224.782V29.3369H231.96C232.051 29.3369 232.096 29.3825 232.096 29.4736L232.131 33.4385C232.131 33.5296 232.085 33.5752 231.994 33.5752H224.782V39.6934H231.994C232.085 39.6934 232.131 39.7503 232.131 39.8643V43.8633C232.131 43.9544 232.085 44 231.994 44ZM241.267 44H237.303C237.211 44 237.166 43.943 237.166 43.8291L237.234 19.7837C237.234 19.6925 237.28 19.647 237.371 19.647H241.643C241.735 19.647 241.814 19.6925 241.883 19.7837L245.079 24.3979L248.257 19.7837C248.326 19.6925 248.411 19.647 248.514 19.647H252.803C252.906 19.647 252.957 19.6925 252.957 19.7837L253.025 43.8291C253.025 43.943 252.98 44 252.889 44H248.924C248.833 44 248.787 43.943 248.787 43.8291L248.753 25.9702L245.079 31.3022L241.438 25.9702L241.404 43.8291C241.404 43.943 241.359 44 241.267 44ZM265.187 44H261.171C261.091 44 261.051 43.9544 261.051 43.8633L261.086 33.917L256.403 19.7837C256.38 19.6925 256.414 19.647 256.505 19.647H260.402C260.516 19.647 260.584 19.6925 260.607 19.7837L263.188 29.2002L265.819 19.7837C265.842 19.6925 265.899 19.647 265.99 19.647H269.921C270.012 19.647 270.046 19.6925 270.024 19.7837L265.29 33.7803L265.324 43.8633C265.324 43.9544 265.278 44 265.187 44Z" fill="#E3FFF9"/>
</svg>
