<svg width="79" height="60" viewBox="0 0 79 60" fill="none" xmlns="http://www.w3.org/2000/svg">
<path d="M66.9362 47.5902L56.3815 51.8623L43.628 57.0139H43.5652C43.5023 57.0139 43.5024 57.0139 43.4395 57.0768C43.3139 57.1396 43.2511 57.1396 43.1254 57.2024C43.0626 57.2024 42.9997 57.2024 42.9369 57.2652C42.8741 57.2652 42.7484 57.3281 42.6856 57.3281C42.6228 57.3281 42.56 57.3281 42.4972 57.3909C42.4343 57.3909 42.3087 57.3909 42.2459 57.4537C42.183 57.4537 42.1202 57.4537 41.9945 57.4537C41.9317 57.4537 41.8689 57.4537 41.7432 57.4537C41.6176 57.4537 41.4919 57.4537 41.3663 57.4537H41.3035C41.1778 57.4537 41.0522 57.4537 40.9893 57.3909C40.9265 57.3909 40.9265 57.3909 40.8637 57.3909C40.8637 57.3909 40.8637 57.3909 40.8009 57.3909C40.738 57.3909 40.6124 57.3281 40.5496 57.3281C40.4867 57.3281 40.4867 57.3281 40.4239 57.2652C40.2983 57.2652 40.2354 57.2024 40.1098 57.1396C40.047 57.1396 40.047 57.1396 39.9841 57.0768L4.80198 42.8783C2.41462 41.9359 1.15811 39.2344 2.03767 36.847C2.98005 34.3968 5.74436 33.2032 8.13172 34.2084L39.4187 46.8362L39.9213 47.0247C41.0522 47.4645 42.3715 47.4645 43.5024 47.0247L71.7737 35.5905L77.6793 33.2032C78.3704 32.9519 78.3076 32.1351 77.7421 31.821L45.1358 17.1199C42.9997 16.1775 40.4867 16.1775 38.3507 17.1199L4.23655 32.5121C2.54027 33.1403 1.15811 34.3968 0.467034 36.1559C-0.852297 39.4229 0.718339 43.1924 3.98525 44.5117L39.1674 58.7102C39.6072 58.8987 40.047 59.0243 40.4867 59.0872H40.5496C40.6752 59.0872 40.8637 59.15 40.9893 59.15C41.0522 59.15 41.0522 59.15 41.115 59.15C41.3035 59.15 41.4919 59.15 41.6804 59.15C42.4971 59.15 43.3139 58.9615 44.0678 58.7102L76.2971 45.7054C77.8678 45.0771 78.1191 44.5117 78.1191 43.1296L66.9362 47.5902ZM4.8648 32.2608C4.8648 32.2608 4.80198 32.2608 4.8648 32.2608C4.80198 32.2608 4.8648 32.2608 4.8648 32.2608ZM5.93283 32.0723C5.87001 32.0723 5.87001 32.0723 5.80718 32.0723C5.87001 32.0723 5.93283 32.0723 5.93283 32.0723ZM5.43024 32.1351H5.36741C5.36741 32.1351 5.36741 32.1351 5.43024 32.1351Z" fill="#284265"/>
<path d="M41.8055 55.192C41.3029 55.192 40.8003 55.1292 40.2977 55.0035H40.2349L6.3092 41.2448C6.0579 41.1191 5.86942 40.805 5.99507 40.5537C6.12072 40.3024 6.43485 40.1139 6.68615 40.2396L40.6118 53.9355C41.3657 54.1868 42.1196 54.1868 42.9363 53.9355L75.6683 40.7422C75.9196 40.6165 76.2337 40.7422 76.3594 41.0563C76.485 41.3076 76.3594 41.6217 76.0453 41.7474L43.3133 54.9407H43.2505C42.8107 55.1292 42.3081 55.192 41.8055 55.192Z" fill="#284265"/>
<path d="M41.8055 51.4225C41.3029 51.4225 40.8003 51.3597 40.2977 51.234H40.2349L6.3092 37.4753C6.0579 37.3496 5.86942 37.0355 5.99507 36.7842C6.12072 36.5329 6.43485 36.3444 6.68615 36.4701L40.6118 50.166C41.3657 50.4173 42.1824 50.4173 42.9363 50.166L75.6683 36.9727C75.9196 36.847 76.2337 36.9727 76.3594 37.2868C76.485 37.5381 76.3594 37.8522 76.0453 37.9779L43.3133 51.1712H43.2505C42.8107 51.3597 42.3081 51.4225 41.8055 51.4225Z" fill="#284265"/>
<path d="M39.3552 0.282714L15.356 11.2143C14.7277 11.4656 14.7277 12.3452 15.356 12.5965L39.3552 23.5281C40.1091 23.8422 40.9259 23.8422 41.6169 23.5281L65.6162 12.5965C66.2444 12.3452 66.2444 11.4656 65.6162 11.2143L41.6169 0.282714C40.9259 -0.0942379 40.1091 -0.0942379 39.3552 0.282714Z" fill="#284265"/>
<path d="M40.3616 36.5958C29.8069 36.5958 21.8281 33.0147 21.8281 28.24V15.7378L38.7281 23.4653C39.2936 23.7166 39.859 23.8422 40.4872 23.8422C41.1155 23.8422 41.6809 23.7166 42.2464 23.4653L58.8951 15.8634V28.1772C58.8951 32.9519 50.9791 36.5958 40.3616 36.5958Z" fill="#E3FFF9"/>
<path d="M42.8108 24.7217C42.0569 25.0359 41.303 25.2243 40.4863 25.2243C39.6695 25.2243 38.9156 25.0359 38.1617 24.7217L23.1465 17.8738V28.2399C23.1465 32.1351 30.8112 35.2764 40.2978 35.2764C49.7844 35.2764 57.4491 32.1351 57.4491 28.2399V17.9994L42.8108 24.7217Z" fill="#284265"/>
</svg>
