<svg width="73" height="73" viewBox="0 0 73 73" fill="none" xmlns="http://www.w3.org/2000/svg">
<path d="M14.5998 10.95C12.6637 10.95 10.8069 11.7191 9.43792 13.0881C8.06891 14.4571 7.2998 16.3139 7.2998 18.25V47.45C7.2998 49.3861 8.06891 51.2429 9.43792 52.6119C10.8069 53.9809 12.6637 54.75 14.5998 54.75H41.9748V52.3009C41.6624 51.9141 41.3677 51.5134 41.0915 51.1H14.5998C13.6318 51.1 12.7034 50.7155 12.0189 50.031C11.3344 49.3464 10.9498 48.4181 10.9498 47.45V18.25C10.9498 17.282 11.3344 16.3536 12.0189 15.6691C12.7034 14.9846 13.6318 14.6 14.5998 14.6H58.3998C59.3678 14.6 60.2962 14.9846 60.9807 15.6691C61.6653 16.3536 62.0498 17.282 62.0498 18.25V27.2582C63.3784 27.9152 64.6048 28.7547 65.6998 29.7329V18.25C65.6998 16.3139 64.9307 14.4571 63.5617 13.0881C62.1927 11.7191 60.3359 10.95 58.3998 10.95H14.5998ZM67.5248 41.975C67.5248 45.3632 66.1789 48.6125 63.7831 51.0083C61.3873 53.4041 58.1379 54.75 54.7498 54.75C51.3617 54.75 48.1123 53.4041 45.7165 51.0083C43.3207 48.6125 41.9748 45.3632 41.9748 41.975C41.9748 38.5869 43.3207 35.3375 45.7165 32.9417C48.1123 30.5459 51.3617 29.2 54.7498 29.2C58.1379 29.2 61.3873 30.5459 63.7831 32.9417C66.1789 35.3375 67.5248 38.5869 67.5248 41.975ZM54.7498 58.4C58.1261 58.4 61.2651 57.378 63.8748 55.6333V65.7C63.8748 66.0389 63.7804 66.3712 63.6022 66.6595C63.4241 66.9478 63.1691 67.1808 62.866 67.3323C62.5628 67.4839 62.2235 67.5481 61.8859 67.5176C61.5484 67.4872 61.2259 67.3634 60.9548 67.16L55.8448 63.3275C55.5289 63.0906 55.1447 62.9625 54.7498 62.9625C54.3549 62.9625 53.9707 63.0906 53.6548 63.3275L48.5448 67.16C48.2737 67.3634 47.9513 67.4872 47.6137 67.5176C47.2761 67.5481 46.9368 67.4839 46.6336 67.3323C46.3305 67.1808 46.0756 66.9478 45.8974 66.6595C45.7192 66.3712 45.6248 66.0389 45.6248 65.7V55.6333C48.3239 57.442 51.5008 58.4052 54.7498 58.4ZM18.2498 23.725C18.2498 23.241 18.4421 22.7768 18.7843 22.4345C19.1266 22.0923 19.5908 21.9 20.0748 21.9H52.9248C53.4088 21.9 53.873 22.0923 54.2153 22.4345C54.5575 22.7768 54.7498 23.241 54.7498 23.725C54.7498 24.209 54.5575 24.6732 54.2153 25.0155C53.873 25.3577 53.4088 25.55 52.9248 25.55H20.0748C19.5908 25.55 19.1266 25.3577 18.7843 25.0155C18.4421 24.6732 18.2498 24.209 18.2498 23.725ZM20.0748 40.15C19.5908 40.15 19.1266 40.3423 18.7843 40.6845C18.4421 41.0268 18.2498 41.491 18.2498 41.975C18.2498 42.459 18.4421 42.9232 18.7843 43.2655C19.1266 43.6077 19.5908 43.8 20.0748 43.8H34.6748C35.1588 43.8 35.623 43.6077 35.9653 43.2655C36.3075 42.9232 36.4998 42.459 36.4998 41.975C36.4998 41.491 36.3075 41.0268 35.9653 40.6845C35.623 40.3423 35.1588 40.15 34.6748 40.15H20.0748Z" fill="#00B7A6"/>
</svg>
