<svg width="66" height="66" viewBox="0 0 66 66" fill="none" xmlns="http://www.w3.org/2000/svg">
<g clip-path="url(#clip0_220_54)">
<path d="M33.0322 60.4989H33.0223C32.414 60.4989 31.9268 60.9917 31.9268 61.5988C31.9268 62.2071 32.4251 62.6988 33.0322 62.6988C33.6405 62.6988 34.1322 62.2071 34.1322 61.5988C34.1322 60.9917 33.6405 60.4989 33.0322 60.4989Z" fill="#00B7A6"/>
<path d="M40.1538 52.9442L32.9995 57.0318L25.8452 52.9442C25.3184 52.6439 24.6451 52.8265 24.3438 53.3534C24.0434 53.8814 24.2261 54.5535 24.7529 54.8537L32.4539 59.2536C32.5376 59.3019 32.6266 59.3383 32.7191 59.3625C32.8115 59.3867 32.9049 59.3988 32.9984 59.3988H32.9995H33.0007C33.0931 59.3988 33.1866 59.3867 33.279 59.3625C33.3714 59.3383 33.4617 59.302 33.5452 59.2536L41.245 54.8537C41.7719 54.5533 41.9557 53.8814 41.6542 53.3534C41.3529 52.8265 40.6808 52.644 40.1538 52.9442Z" fill="#00B7A6"/>
<path d="M33.0322 63.7988H33.0223C32.414 63.7988 31.9268 64.2916 31.9268 64.8988C31.9268 65.5071 32.4251 65.9987 33.0322 65.9987C33.6405 65.9987 34.1322 65.5071 34.1322 64.8988C34.1322 64.2916 33.6405 63.7988 33.0322 63.7988Z" fill="#00B7A6"/>
<path d="M20.9005 52.7991H14.3006C3.59109 52.7991 2.34923 57.1351 1.44291 60.2999C1.34945 60.6277 1.25806 60.9477 1.15687 61.2513L0.0569316 64.5512C-0.135522 65.1276 0.175781 65.7502 0.752111 65.9428C0.867609 65.9813 0.985298 66 1.1008 66C1.56163 66 1.99062 65.7085 2.14363 65.2476L3.24357 61.9476C3.35468 61.6143 3.45471 61.2656 3.55822 60.906C4.31721 58.2561 5.19285 55.2752 13.2006 55.0243V64.8989C13.2006 65.5072 13.6923 65.9988 14.3006 65.9988C14.9077 65.9988 15.4005 65.5072 15.4005 64.8989V54.9991H17.6005V64.8989C17.6005 65.5072 18.0921 65.9988 18.7004 65.9988C19.3076 65.9988 19.8004 65.5072 19.8004 64.8989V54.9991H20.9003C21.5075 54.9991 22.0003 54.5074 22.0003 53.8991C22.0004 53.2919 21.5076 52.7991 20.9005 52.7991Z" fill="#00B7A6"/>
<path d="M34.0997 37.3993H31.8997C31.2914 37.3993 30.7998 37.8921 30.7998 38.4992C30.7998 39.1075 31.2914 39.5992 31.8997 39.5992H34.0997C34.7069 39.5992 35.1997 39.1075 35.1997 38.4992C35.1997 37.8921 34.7069 37.3993 34.0997 37.3993Z" fill="#00B7A6"/>
<path d="M65.9424 64.5512L64.8425 61.2513C64.7413 60.9477 64.6511 60.6277 64.5564 60.2999C63.6501 57.1353 62.4081 52.7991 51.6998 52.7991H45.0999C44.4916 52.7991 44 53.2919 44 53.899C44 54.5073 44.4916 54.9989 45.0999 54.9989H46.1999V64.8988C46.1999 65.5071 46.6915 65.9987 47.2998 65.9987C47.907 65.9987 48.3997 65.5071 48.3997 64.8988V54.9989H50.5998V64.8988C50.5998 65.5071 51.0914 65.9987 51.6997 65.9987C52.3068 65.9987 52.7996 65.5071 52.7996 64.8988V55.0242C60.8064 55.2751 61.682 58.256 62.441 60.9058C62.5444 61.2655 62.6445 61.6142 62.7557 61.9475L63.8556 65.2475C64.0096 65.7084 64.4386 65.9999 64.8995 65.9999C65.0138 65.9999 65.1316 65.9812 65.2471 65.9426C65.8236 65.7503 66.1349 65.1277 65.9424 64.5512Z" fill="#00B7A6"/>
<path d="M23.1727 26.0156C23.517 28.1011 25.3189 29.6994 27.5 29.6994C29.5438 29.6994 31.251 28.2914 31.7438 26.3995H34.2562C34.7478 28.2914 36.455 29.6994 38.4999 29.6994C40.6801 29.6994 42.4819 28.1011 42.8273 26.0156L46.6915 24.084C47.2349 23.8123 47.4549 23.1512 47.1832 22.6078C46.9126 22.0644 46.2504 21.8432 45.707 22.1161L42.5819 23.6792C41.9341 22.0545 40.3523 20.8995 38.4999 20.8995C36.4551 20.8995 34.7479 22.3076 34.2562 24.1995H31.7438C31.251 22.3076 29.5438 20.8995 27.5 20.8995C25.6477 20.8995 24.0659 22.0545 23.418 23.6792L20.2919 22.1161C19.7474 21.8434 19.0874 22.0644 18.8157 22.6078C18.5439 23.1511 18.764 23.8123 19.3073 24.084L23.1727 26.0156ZM38.4998 23.0995C39.7131 23.0995 40.6998 24.0862 40.6998 25.2995C40.6998 26.5128 39.7132 27.4995 38.4998 27.4995C37.2866 27.4995 36.2998 26.5129 36.2998 25.2995C36.2999 24.0862 37.2866 23.0995 38.4998 23.0995ZM27.5 23.0995C28.7133 23.0995 29.7001 24.0862 29.7001 25.2995C29.7001 26.5128 28.7134 27.4995 27.5 27.4995C26.2868 27.4995 25.3 26.5129 25.3 25.2995C25.3 24.0862 26.2868 23.0995 27.5 23.0995Z" fill="#00B7A6"/>
<path d="M50.5563 28.4268C51.8597 27.9847 52.8002 26.7504 52.8002 25.2996V23.0996C52.8002 21.5498 51.9357 20.3728 50.6002 19.9603V12.0998C50.6002 4.86303 45.7372 0 38.5004 0H9.90097C9.43781 0 9.02429 0.290421 8.86703 0.724827C8.7086 1.16039 8.8406 1.64765 9.19586 1.94465C9.25748 1.99634 15.4009 7.18601 15.4009 12.0997V16.4997C15.4009 17.108 15.8926 17.5996 16.5009 17.5996C17.0277 17.5996 28.957 17.5414 37.8383 12.6619C39.3267 16.5272 43.1139 17.5996 45.1004 17.5996C45.7075 17.5996 46.2003 17.108 46.2003 16.4997C46.2003 15.8926 45.7075 15.3998 45.1004 15.3998C44.9123 15.3998 40.4914 15.3469 39.5785 10.7842C39.5082 10.43 39.2672 10.133 38.9362 9.99006C38.604 9.8471 38.2234 9.87675 37.9176 10.067C30.9369 14.4295 20.904 15.2248 17.6008 15.3678V12.0998C17.6008 8.1894 14.698 4.4022 12.63 2.2H38.5004C44.514 2.2 48.4002 6.0862 48.4002 12.0998V20.8997C48.4002 21.508 48.8918 21.9997 49.5001 21.9997C50.2295 21.9997 50.6001 22.3704 50.6001 23.0996V25.2996C50.6001 25.9067 50.1063 26.3995 49.5001 26.3995C48.8918 26.3995 48.4002 26.8923 48.4002 27.4995C48.4002 27.5402 48.3728 31.6024 46.3443 35.68C44.9275 36.9318 41.9334 37.8579 40.1009 38.3012C39.1967 35.6471 37.1309 32.9994 33.0006 32.9994C28.8691 32.9994 26.8032 35.6471 25.9001 38.3014C24.0907 37.8636 21.1494 36.9561 19.7106 35.7286C17.6382 31.6575 17.6008 27.5403 17.6008 27.4986C17.5986 26.8925 17.107 26.3997 16.5009 26.3997C15.8937 26.3997 15.4009 25.9069 15.4009 25.2997V23.0996C15.4009 22.4219 15.8222 21.9997 16.5009 21.9997C17.108 21.9997 17.6008 21.508 17.6008 20.8997C17.6008 20.2926 17.108 19.7998 16.5009 19.7998C14.6187 19.7998 13.2009 21.2188 13.2009 23.0997V25.2997C13.2009 26.7505 14.1414 27.9858 15.4449 28.4269C15.5637 29.9648 16.0092 33.1954 17.6405 36.503C17.657 36.5899 17.6723 36.6746 17.7087 36.7561C18.6315 45.1344 21.1944 52.7991 33.0006 52.7991C41.4594 52.7991 46.9824 50.0844 48.3419 36.6095C49.9941 33.2656 50.4374 29.9822 50.5563 28.4268ZM33.0006 50.5991C25.2182 50.5991 21.585 47.2936 20.1891 38.6324C22.004 39.553 24.1248 40.1426 25.3964 40.4452C25.3326 40.9314 25.3007 41.3912 25.3007 41.7993C25.3007 42.4064 25.7913 42.8971 26.3975 42.8982H26.4008C27.0058 42.8982 27.4975 42.4076 27.5007 41.8027C27.5019 41.5331 27.5932 35.1994 33.0007 35.1994C38.4082 35.1994 38.4995 41.5331 38.5006 41.7993C38.5006 42.4076 38.9923 42.8992 39.6006 42.8992C40.2077 42.8992 40.7005 42.4076 40.7005 41.7993C40.7005 41.3912 40.6675 40.9314 40.6037 40.4452C41.8917 40.1394 44.0488 39.5377 45.8792 38.5972C44.5745 47.6082 41.2174 50.5991 33.0006 50.5991Z" fill="#00B7A6"/>
</g>
<defs>
<clipPath id="clip0_220_54">
<rect width="66" height="66" fill="white"/>
</clipPath>
</defs>
</svg>
