<svg width="67" height="67" viewBox="0 0 67 67" fill="none" xmlns="http://www.w3.org/2000/svg">
<path d="M58.6253 8.375H8.37533C6.89453 8.375 5.47439 8.96324 4.42731 10.0103C3.38023 11.0574 2.79199 12.4775 2.79199 13.9583V22.3333H8.37533V13.9583H58.6253V53.0417H39.0837V58.625H58.6253C60.1061 58.625 61.5263 58.0368 62.5733 56.9897C63.6204 55.9426 64.2087 54.5225 64.2087 53.0417V13.9583C64.2087 12.4775 63.6204 11.0574 62.5733 10.0103C61.5263 8.96324 60.1061 8.375 58.6253 8.375ZM2.79199 50.25V58.625H11.167C11.167 56.4038 10.2846 54.2736 8.71401 52.703C7.14339 51.1324 5.01318 50.25 2.79199 50.25ZM2.79199 39.0833V44.6667C4.62503 44.6667 6.44011 45.0277 8.13362 45.7292C9.82712 46.4307 11.3659 47.4588 12.662 48.755C13.9582 50.0511 14.9863 51.5899 15.6878 53.2834C16.3893 54.9769 16.7503 56.792 16.7503 58.625H22.3337C22.3337 53.4422 20.2748 48.4717 16.61 44.807C12.9453 41.1422 7.97476 39.0833 2.79199 39.0833ZM2.79199 27.9167V33.5C6.09145 33.5 9.35861 34.1499 12.4069 35.4125C15.4552 36.6752 18.225 38.5259 20.5581 40.8589C22.8911 43.192 24.7418 45.9618 26.0045 49.0101C27.2671 52.0584 27.917 55.3255 27.917 58.625H33.5003C33.5003 41.6517 19.7374 27.9167 2.79199 27.9167ZM30.7087 30.9596V36.5429L40.4795 41.875L50.2503 36.5429V30.9596L40.4795 36.2917L30.7087 30.9596ZM40.4795 16.75L25.1253 25.125L40.4795 33.5L55.8337 25.125L40.4795 16.75Z" fill="#00B7A6"/>
</svg>
